<svg width="560" height="211" viewBox="0 0 560 211" fill="none" xmlns="http://www.w3.org/2000/svg">
<g clip-path="url(#clip0_3_2)">
<path d="M195.5 102.5C194.1 75.8 183 53.5 165.6 33.9C150.1 16.4 132 3.2 107.9 0.7C103.7 0.3 99.5 0 95.2 0C87.2 0 79 1.1 70.1 4.6C83.3 7.3 95.3 4.8 107.4 10.2C81.3 13.3 57.9 19.6 38.6 38.1C42.7 39.3 45.2 38.5 47.9 37.9C64.1 34.8 80 29.8 97 32.8C149 41.7 180.3 100.4 151.3 147C137.7 168.8 116.7 181.4 91.3 181.1C51.6 180.7 16.8 136.5 24.3 96.5C26.9 82.5 32.6 70.3 40 58.5C40.4 56.8 39.8 56.2 38.1 56.6C25.2 65 19.1 77.6 16.1 92.1C13.8 102.9 11.9 113.8 9.7 125.4C4.7 118.6 7.1 110.7 2.6 102.6C-4 133.6 2.2 159.1 22.8 180.9C37.5 196.4 64.4 207.2 76.6 202.4C71.2 198.5 65 195.9 60.7 190.8C61.2 190.3 61.3 190 61.5 190C62.2 190.1 63 190.2 63.7 190.3C89.4 193.4 114 192.3 135.5 174.9C145.2 167 152.7 157.2 160.5 147.7C162.5 146.9 162.6 147.8 162.1 149.4C154.8 169.3 137.4 180.4 122.2 193.5C126.1 196.8 130.6 193.7 134.3 198.2C129.6 202.2 124.9 206.3 120.1 210.4C124.1 210.9 127.2 210.2 130.2 209.2C171.2 196 197.8 146 195.5 102.5Z" fill="url(#paint0_linear_3_2)"/>
<path d="M95 117.6C101.186 117.6 106.2 112.586 106.2 106.4C106.2 100.214 101.186 95.2 95 95.2C88.8144 95.2 83.8 100.214 83.8 106.4C83.8 112.586 88.8144 117.6 95 117.6Z" fill="url(#paint1_linear_3_2)"/>
<path d="M100.2 96.5C98.6 95.7 96.9 95.2 95 95.2C90.6 95.2 86.9 97.7 85 101.3C84.2 102.8 83.8 104.6 83.8 106.4C83.8 110.8 86.3 114.6 90 116.4C91.5 117.2 93.2 117.6 95.1 117.6C99.5 117.6 103.2 115.1 105.1 111.5C105.9 110 106.4 108.2 106.4 106.4C106.2 102.1 103.8 98.3 100.2 96.5Z" fill="white"/>
<path d="M83.7 106.4C83.7 104.6 84.2 102.8 84.9 101.3L55.1 86C60.9 92.7 65.4 98.5 70.6 103.6C76.3 109.2 78.2 115.3 76.8 123.1C75.6 130.2 75.5 137.5 74.7 145.9L89.8 116.5C86.3 114.6 83.7 110.8 83.7 106.4Z" fill="url(#paint2_linear_3_2)"/>
<path d="M95 95.2C96.9 95.2 98.6 95.7 100.2 96.5L115.3 67C107.7 73.6 101.2 79 95.1 84.6C91.3 88.1 87.2 89.3 82.1 88.7C73.6 87.7 65.1 87 55.2 86L85 101.3C86.8 97.7 90.6 95.2 95 95.2Z" fill="url(#paint3_linear_3_2)"/>
<path d="M106.2 106.4C106.2 108.3 105.7 110 104.9 111.5L134.7 126.8C128.4 119.5 123.2 113 117.5 107.1C113.4 102.8 112.1 98.4 112.9 92.6C114 84.6 114.3 76.5 115.1 66.9L100 96.4C103.8 98.3 106.2 102.1 106.2 106.4Z" fill="url(#paint4_linear_3_2)"/>
<path d="M105 111.6C103.1 115.2 99.4 117.7 95 117.7C93.2 117.7 91.5 117.3 89.9 116.5L74.8 145.9C82.1 139.7 88.5 134.7 94.4 129.1C98.6 125 103.1 123.7 108.9 124.5C117.1 125.7 125.4 126.1 134.8 126.9L105 111.6Z" fill="url(#paint5_linear_3_2)"/>
<path d="M318.2 148.8L318.8 145.7H315.1L316.1 140.6H312.7L312.1 143.9C312 144.5 311.8 145 311.5 145.3C311.3 145.6 310.8 145.7 310.1 145.7H308.7L308.1 148.8H310.8L308.6 160.2C308.6 160.4 308.5 160.7 308.5 160.9C308.5 161.1 308.5 161.4 308.5 161.5C308.5 162.4 308.8 163.1 309.3 163.6C309.8 164.1 310.7 164.4 311.8 164.4H315.1L315.7 161.3H312L314.4 148.8H318.2Z" fill="url(#paint6_linear_3_2)"/>
<path d="M300.1 145.7L297.1 161C297 161.4 297 161.7 297 161.9C297 162.6 297.2 163.3 297.7 163.7C298.2 164.2 298.9 164.4 299.8 164.4H302.5L303.1 161.3H300.7L303.8 145.7H300.1Z" fill="url(#paint7_linear_3_2)"/>
<path d="M305.2 140.4C305.3 139.8 305.4 139.4 305.4 139.1C305.4 138.7 305.2 138.3 304.9 138C304.6 137.7 304.1 137.6 303.4 137.6C302.6 137.6 302 137.8 301.6 138.2C301.2 138.6 301 139 300.9 139.6C300.8 140.2 300.7 140.6 300.7 140.9C300.7 141.3 300.9 141.7 301.2 142C301.5 142.3 302 142.4 302.7 142.4C303.5 142.4 304.1 142.2 304.5 141.9C304.9 141.4 305.1 140.9 305.2 140.4Z" fill="url(#paint8_linear_3_2)"/>
<path d="M445.6 161H445.4L444.8 154L443.7 145.7H440.1L442.7 164.4H447.1L457 145.7H453L448.8 154L445.6 161Z" fill="url(#paint9_linear_3_2)"/>
<path d="M409.5 161.2C409.5 161.4 409.4 161.6 409.4 161.7V162.1C409.4 162.9 409.6 163.5 410.1 163.9C410.6 164.3 411.2 164.5 412 164.5H414.8L415.4 161.4H413.2L414.9 152.9C415 152.4 415.1 152 415.1 151.6C415.1 151.2 415.2 150.8 415.2 150.4C415.2 148.8 414.8 147.6 414 146.7C413.2 145.8 412.1 145.4 410.6 145.4C409.2 145.4 408.1 145.8 407.2 146.6C406.3 147.3 405.5 148.4 404.8 149.9H404.6L405.4 145.9H401.7L398 164.7H401.7L403.7 154.6C403.8 153.9 404.1 153.1 404.5 152.4C404.9 151.6 405.3 151 405.8 150.4C406.7 149.3 407.8 148.8 409 148.8C409.8 148.8 410.5 149 410.8 149.5C411.2 149.9 411.4 150.6 411.4 151.4C411.4 152 411.3 152.7 411.2 153.4L409.5 161.2Z" fill="url(#paint10_linear_3_2)"/>
<path d="M388.2 161.2C388.2 161.4 388.1 161.6 388.1 161.7V162.1C388.1 162.9 388.3 163.5 388.8 163.9C389.3 164.3 389.9 164.5 390.7 164.5H393.5L394.1 161.4H391.9L393.6 152.9C393.7 152.4 393.8 152 393.8 151.6C393.8 151.2 393.9 150.8 393.9 150.4C393.9 148.8 393.5 147.6 392.7 146.7C391.9 145.8 390.8 145.4 389.3 145.4C387.9 145.4 386.8 145.8 385.9 146.6C385 147.3 384.2 148.4 383.5 149.9H383.3L384.1 145.9H380.4L376.7 164.7H380.4L382.4 154.6C382.5 153.9 382.8 153.1 383.2 152.4C383.6 151.6 384 151 384.5 150.4C385.4 149.3 386.5 148.8 387.7 148.8C388.5 148.8 389.2 149 389.5 149.5C389.9 149.9 390.1 150.6 390.1 151.4C390.1 152 390 152.7 389.9 153.4L388.2 161.2Z" fill="url(#paint11_linear_3_2)"/>
<path d="M334.5 145.7L333.9 148.8H333.7C333.5 147.7 333 146.8 332.1 146.2C331.2 145.6 330.2 145.2 329 145.2C327.6 145.2 326.4 145.6 325.3 146.3C324.2 147 323.3 147.9 322.5 149.1C321.7 150.3 321.2 151.6 320.8 153.2C320.4 154.7 320.2 156.3 320.2 158C320.2 160.1 320.7 161.8 321.6 163C322.5 164.3 323.8 164.9 325.5 164.9C326.9 164.9 328.1 164.5 329 163.7C329.9 162.9 330.8 161.8 331.5 160.2H331.6L331.5 160.9C331.4 161.2 331.4 161.5 331.4 161.9C331.4 162.7 331.6 163.3 332.1 163.7C332.6 164.1 333.3 164.3 334.1 164.3H336.9L337.5 161.2H335.1L338.2 145.6H334.5V145.7ZM333.3 151.9L332.6 155.7C332.3 157.4 331.6 158.8 330.6 159.9C330.1 160.4 329.6 160.9 329 161.2C328.4 161.5 327.8 161.7 327 161.7C326 161.7 325.3 161.4 324.8 160.7C324.3 160 324.1 159.2 324.1 158.1C324.1 157.8 324.1 157.5 324.1 157.1C324.1 156.7 324.2 156.4 324.2 156.1L324.7 153.5C325 151.8 325.6 150.6 326.4 149.7C327.2 148.8 328.3 148.4 329.7 148.4C330.3 148.4 330.9 148.5 331.3 148.7C331.8 148.9 332.2 149.2 332.5 149.5C332.8 149.8 333 150.2 333.1 150.6C333.4 151.1 333.4 151.5 333.3 151.9Z" fill="url(#paint12_linear_3_2)"/>
<path d="M425.4 146.2C424.2 146.8 423.2 147.7 422.4 148.8C421.6 149.9 420.9 151.1 420.5 152.6C420 154 419.8 155.6 419.8 157.2C419.8 159.7 420.4 161.6 421.7 163C423 164.3 424.6 165 426.7 165C428.1 165 429.4 164.7 430.5 164.1C431.7 163.5 432.6 162.6 433.5 161.5C434.3 160.4 435 159.2 435.5 157.7C436 156.3 436.2 154.7 436.2 153.1C436.2 150.6 435.6 148.7 434.3 147.3C433 146 431.4 145.3 429.3 145.3C427.9 145.2 426.6 145.6 425.4 146.2ZM432.5 152.2C432.5 152.5 432.5 152.7 432.5 153C432.5 153.2 432.4 153.5 432.4 153.6L431.8 156.6C431.5 158.3 430.9 159.5 430 160.4C429.2 161.3 428.2 161.7 427 161.7C425.8 161.7 424.9 161.4 424.3 160.7C423.7 160 423.4 159.1 423.4 157.9C423.4 157.6 423.4 157.4 423.4 157.2C423.4 157 423.5 156.7 423.5 156.5L424.1 153.5C424.4 151.8 425 150.6 425.9 149.7C426.8 148.8 427.8 148.4 428.9 148.4C430.1 148.4 431 148.7 431.5 149.4C432.2 150.1 432.5 151 432.5 152.2Z" fill="url(#paint13_linear_3_2)"/>
<path d="M346.7 137.7L342.1 161C342 161.4 342 161.7 342 161.9C342 162.6 342.2 163.3 342.7 163.7C343.2 164.2 343.9 164.4 344.7 164.4H347.6L348.2 161.3H345.7L350.3 137.7H346.7Z" fill="url(#paint14_linear_3_2)"/>
<path d="M375.1 142.5L375.8 139.3H365.6L365 142.5H368.1L364.5 161.2H361.3L360.6 164.4H370.8L371.5 161.2H368.3L371.9 142.5H375.1Z" fill="url(#paint15_linear_3_2)"/>
<path d="M275.1 140.4C275.2 139.8 275.3 139.4 275.3 139.1C275.3 138.7 275.1 138.3 274.8 138C274.5 137.7 274 137.6 273.3 137.6C272.5 137.6 271.9 137.8 271.5 138.2C271.1 138.6 270.9 139 270.8 139.6C270.7 140.2 270.6 140.6 270.6 140.9C270.6 141.3 270.8 141.7 271.1 142C271.4 142.3 271.9 142.4 272.6 142.4C273.4 142.4 274 142.2 274.4 141.9C274.7 141.4 275 140.9 275.1 140.4Z" fill="url(#paint16_linear_3_2)"/>
<path d="M256.1 163.2C257.7 162.4 259 161.2 260.1 159.8C261.2 158.4 262 156.7 262.5 154.8C263.1 152.9 263.3 151 263.3 148.9C263.3 145.7 262.5 143.3 260.9 141.7C259.3 140.1 257.2 139.2 254.4 139.2H246.9L242 164.4H250.8C252.7 164.4 254.5 164 256.1 163.2ZM250 142.7H254.5C256 142.7 257.2 143.1 258 144C258.9 144.9 259.3 146.2 259.3 148C259.3 148.3 259.3 148.6 259.2 149C259.2 149.4 259.1 149.8 259.1 150.2L258.4 153.8C257.9 156.1 257 157.9 255.7 159.1C254.4 160.3 252.8 160.9 250.9 160.9H246.4L250 142.7Z" fill="url(#paint17_linear_3_2)"/>
<path d="M508.8 146.2C507.6 146.8 506.6 147.7 505.8 148.8C505 149.9 504.3 151.1 503.9 152.6C503.4 154 503.2 155.6 503.2 157.2C503.2 159.7 503.8 161.6 505.1 163C506.4 164.3 508 165 510.1 165C511.5 165 512.8 164.7 513.9 164.1C515.1 163.5 516 162.6 516.9 161.5C517.7 160.4 518.4 159.2 518.9 157.7C519.4 156.3 519.6 154.7 519.6 153.1C519.6 150.6 519 148.7 517.7 147.3C516.4 146 514.8 145.3 512.7 145.3C511.2 145.2 509.9 145.6 508.8 146.2ZM515.9 152.2C515.9 152.5 515.9 152.7 515.9 153C515.9 153.2 515.8 153.5 515.8 153.6L515.2 156.6C514.9 158.3 514.3 159.5 513.4 160.4C512.6 161.3 511.6 161.7 510.4 161.7C509.2 161.7 508.3 161.4 507.7 160.7C507.1 160 506.8 159.1 506.8 157.9C506.8 157.6 506.8 157.4 506.8 157.2C506.8 157 506.9 156.7 506.9 156.5L507.5 153.5C507.8 151.8 508.4 150.6 509.3 149.7C510.2 148.8 511.2 148.4 512.3 148.4C513.5 148.4 514.4 148.7 514.9 149.4C515.6 150.1 515.9 151 515.9 152.2Z" fill="url(#paint18_linear_3_2)"/>
<path d="M495.6 145.7L492.6 161C492.5 161.4 492.5 161.7 492.5 161.9C492.5 162.6 492.7 163.3 493.2 163.7C493.7 164.2 494.4 164.4 495.2 164.4H497.9L498.5 161.3H496.1L499.2 145.7H495.6Z" fill="url(#paint19_linear_3_2)"/>
<path d="M553.8 164.4C554.7 164.1 555.5 163.6 556.1 163C556.7 162.4 557.2 161.7 557.5 161C557.9 160.2 558 159.3 558 158.4C558 156.9 557.6 155.7 556.7 155C555.8 154.2 554.6 153.7 553.1 153.4L551.5 153.1C550.6 152.9 550 152.7 549.7 152.3C549.4 151.9 549.2 151.5 549.2 151C549.2 150.2 549.5 149.6 550 149.1C550.6 148.6 551.4 148.3 552.5 148.3C553.5 148.3 554.3 148.5 555 148.9C555.7 149.3 556.2 149.7 556.7 150.3L559.1 148.1C557.6 146.2 555.5 145.2 552.7 145.2C551.5 145.2 550.4 145.4 549.6 145.7C548.7 146 548 146.5 547.4 147.1C546.8 147.7 546.4 148.4 546.1 149.1C545.8 149.8 545.7 150.6 545.7 151.4C545.7 152.9 546.1 154 547 154.8C547.9 155.5 549.1 156 550.6 156.3L552.2 156.6C553.1 156.8 553.7 157 554 157.4C554.3 157.8 554.5 158.2 554.5 158.7C554.5 159.6 554.2 160.3 553.5 160.8C552.9 161.3 552 161.6 550.8 161.6C549.7 161.6 548.8 161.4 548 161C547.2 160.6 546.6 160 546 159.2L543.6 161.4C544.4 162.5 545.4 163.3 546.6 163.9C547.9 164.5 549.2 164.8 550.7 164.8C551.9 164.9 552.9 164.7 553.8 164.4Z" fill="url(#paint20_linear_3_2)"/>
<path d="M295 145.8L295.6 142.7H293C291.5 142.7 290.6 143.6 290.2 145.3L290.1 145.9C289.6 145.7 289.1 145.6 288.5 145.4C288 145.3 287.4 145.2 286.7 145.2C285.4 145.2 284.3 145.4 283.2 145.8C282.2 146.2 281.4 146.7 280.7 147.4C280 148.1 279.5 148.9 279.1 149.7C278.7 150.6 278.6 151.5 278.6 152.5C278.6 154.7 279.4 156.3 281.1 157.2V157.5C279.9 157.7 279 158.2 278.3 158.8C277.6 159.4 277.3 160.2 277.3 161.1C277.3 161.7 277.4 162.3 277.7 162.7C278 163.1 278.4 163.4 279.1 163.6L279 163.9C277.8 164.2 276.9 164.7 276.2 165.4C275.5 166 275.2 166.9 275.2 168C275.2 169.3 275.8 170.3 276.9 171C278.1 171.7 280 172.1 282.7 172.1C284.7 172.1 286.3 171.9 287.6 171.5C288.9 171.1 289.9 170.6 290.7 170C291.5 169.4 292 168.7 292.3 167.9C292.6 167.1 292.8 166.3 292.8 165.5C292.8 164 292.3 162.9 291.4 162.2C290.5 161.4 289 161 286.9 161H282.6C281.1 161 280.4 160.6 280.4 159.7C280.4 159.2 280.6 158.8 281 158.4C281.4 158.1 282 157.8 282.6 157.6C283.2 157.7 283.9 157.8 284.6 157.8C285.9 157.8 287 157.6 288.1 157.2C289.1 156.8 290 156.3 290.7 155.6C291.4 154.9 291.9 154.2 292.3 153.3C292.7 152.4 292.9 151.5 292.9 150.5C292.9 148.8 292.4 147.5 291.3 146.6L291.5 145.6H295V145.8ZM286.4 164.4C287.5 164.4 288.2 164.6 288.6 164.9C289 165.2 289.2 165.7 289.2 166.3C289.2 167.1 288.8 167.8 288 168.4C287.2 169 285.9 169.3 284.1 169.3H282.2C280.9 169.3 280 169.1 279.4 168.7C278.9 168.3 278.6 167.7 278.6 167C278.6 166.5 278.7 166 279 165.6C279.3 165.2 279.7 164.8 280.2 164.5H286.4V164.4ZM289.4 151.1C289.4 151.3 289.3 151.7 289.2 152.2C289 153.1 288.6 153.9 288 154.5C287.4 155.1 286.5 155.3 285.3 155.3C284.3 155.3 283.5 155.1 283 154.7C282.5 154.3 282.3 153.7 282.3 152.9V152.3C282.3 152.1 282.4 151.7 282.5 151.1C282.7 150.1 283.1 149.4 283.7 148.8C284.3 148.2 285.2 148 286.4 148C287.4 148 288.2 148.2 288.7 148.6C289.2 149 289.4 149.6 289.4 150.4C289.4 150.6 289.4 150.8 289.4 151.1Z" fill="url(#paint21_linear_3_2)"/>
<path d="M534.6 161.2C534.6 161.4 534.5 161.6 534.5 161.7V162.1C534.5 162.9 534.7 163.5 535.2 163.9C535.7 164.3 536.3 164.5 537.1 164.5H539.9L540.5 161.4H538.3L540 152.9C540.1 152.4 540.2 152 540.2 151.6C540.2 151.2 540.3 150.8 540.3 150.4C540.3 148.8 539.9 147.6 539.1 146.7C538.3 145.8 537.2 145.4 535.7 145.4C534.3 145.4 533.2 145.8 532.3 146.6C531.4 147.3 530.6 148.4 529.9 149.9H529.7L530.5 145.9H526.8L523.1 164.7H526.8L528.8 154.6C528.9 153.9 529.2 153.1 529.6 152.4C530 151.6 530.4 151 530.9 150.4C531.8 149.3 532.9 148.8 534.1 148.8C534.9 148.8 535.6 149 535.9 149.5C536.3 149.9 536.5 150.6 536.5 151.4C536.5 152 536.4 152.7 536.3 153.4L534.6 161.2Z" fill="url(#paint22_linear_3_2)"/>
<path d="M500.7 140.4C500.8 139.8 500.9 139.4 500.9 139.1C500.9 138.7 500.7 138.3 500.4 138C500.1 137.7 499.6 137.6 498.9 137.6C498.1 137.6 497.5 137.8 497.1 138.2C496.7 138.6 496.5 139 496.4 139.6C496.3 140.2 496.2 140.6 496.2 140.9C496.2 141.3 496.4 141.7 496.7 142C497 142.3 497.5 142.4 498.2 142.4C499 142.4 499.6 142.2 500 141.9C500.4 141.4 500.6 140.9 500.7 140.4Z" fill="url(#paint23_linear_3_2)"/>
<path d="M472.2 145.7L471.6 148.8H471.4C471.2 147.7 470.7 146.8 469.8 146.2C468.9 145.6 467.9 145.2 466.7 145.2C465.3 145.2 464.1 145.6 463 146.3C461.9 147 461 147.9 460.2 149.1C459.4 150.3 458.9 151.6 458.5 153.2C458.1 154.7 457.9 156.3 457.9 158C457.9 160.1 458.4 161.8 459.3 163C460.2 164.3 461.5 164.9 463.2 164.9C464.6 164.9 465.8 164.5 466.7 163.7C467.6 162.9 468.5 161.8 469.2 160.2H469.3L469.2 160.9C469.1 161.2 469.1 161.5 469.1 161.9C469.1 162.7 469.3 163.3 469.8 163.7C470.3 164.1 471 164.3 471.8 164.3H474.6L475.2 161.2H472.8L475.9 145.6H472.2V145.7ZM470.9 151.9L470.2 155.7C469.9 157.4 469.2 158.8 468.2 159.9C467.7 160.4 467.2 160.9 466.6 161.2C466 161.5 465.4 161.7 464.6 161.7C463.6 161.7 462.9 161.4 462.4 160.7C461.9 160 461.7 159.2 461.7 158.1C461.7 157.8 461.7 157.5 461.7 157.1C461.7 156.7 461.8 156.4 461.8 156.1L462.3 153.5C462.6 151.8 463.2 150.6 464 149.7C464.8 148.8 465.9 148.4 467.3 148.4C467.9 148.4 468.5 148.5 468.9 148.7C469.4 148.9 469.8 149.2 470.1 149.5C470.4 149.8 470.6 150.2 470.7 150.6C471 151.1 471 151.5 470.9 151.9Z" fill="url(#paint24_linear_3_2)"/>
<path d="M490.2 148.8L490.8 145.7H487.1L488.1 140.6H484.7L484.1 143.9C484 144.5 483.8 145 483.5 145.3C483.3 145.6 482.8 145.7 482.1 145.7H480.7L480.1 148.8H482.8L480.6 160.2C480.6 160.4 480.5 160.7 480.5 160.9C480.5 161.1 480.5 161.4 480.5 161.5C480.5 162.4 480.8 163.1 481.3 163.6C481.8 164.1 482.7 164.4 483.8 164.4H487.1L487.7 161.3H484.1L486.5 148.8H490.2Z" fill="url(#paint25_linear_3_2)"/>
<path d="M270 145.7L267 161C266.9 161.4 266.9 161.7 266.9 161.9C266.9 162.6 267.1 163.3 267.6 163.7C268.1 164.2 268.8 164.4 269.6 164.4H272.3L272.9 161.3H270.5L273.6 145.7H270Z" fill="url(#paint26_linear_3_2)"/>
<path d="M403.4 59.2L391.5 118.5H384L382.4 126.5H389.1C393 126.5 395.8 125.6 397.7 123.8C399.6 122 401 119.2 401.7 115.6L413 59.2H403.4Z" fill="url(#paint27_linear_3_2)"/>
<path d="M460.1 59.2L458.5 67.3H458C457.5 64.4 456.1 62.2 453.8 60.6C451.5 58.9 448.8 58.1 445.6 58.1C442 58.1 438.7 59 435.9 60.9C433 62.7 430.6 65.1 428.5 68.2C426.5 71.2 425 74.8 423.9 78.8C422.8 82.8 422.3 86.9 422.3 91.1C422.3 96.5 423.5 100.9 425.9 104.1C428.3 107.3 431.8 109 436.3 109C440 109 443.1 108 445.5 106C447.9 104 450.1 101 452.1 97H452.5L452.1 98.8C451.9 99.5 451.8 100.4 451.8 101.5C451.8 103.5 452.4 105 453.7 106.2C455 107.3 456.7 107.9 458.9 107.9H466.3L467.9 99.8H461.6L469.7 59.3H460.1V59.2ZM456.8 75.3L454.8 85.1C453.9 89.5 452.2 93.1 449.5 96C448.3 97.4 446.9 98.5 445.3 99.4C443.8 100.3 442.1 100.7 440.1 100.7C437.5 100.7 435.5 99.9 434.2 98.2C433 96.5 432.3 94.2 432.3 91.5C432.3 90.8 432.3 89.9 432.4 89C432.5 88.1 432.6 87.2 432.8 86.5L434.2 79.7C435.1 75.4 436.6 72.2 438.8 70C441 67.8 443.9 66.6 447.5 66.6C449.1 66.6 450.6 66.9 451.8 67.4C453.1 67.9 454.2 68.6 455 69.5C455.8 70.3 456.4 71.2 456.7 72.3C457 73.2 457 74.2 456.8 75.3Z" fill="url(#paint28_linear_3_2)"/>
<path d="M317.7 107.8H324.9L326.5 99.7H320.2L328.3 59.2H318.6L310.6 98.9C310.4 99.8 310.3 100.6 310.3 101.2C310.3 103.1 310.9 104.7 312.2 106C313.5 107.2 315.3 107.8 317.7 107.8Z" fill="url(#paint29_linear_3_2)"/>
<path d="M410.3 50.5C412.5 50.5 414.1 50 415.1 49.1C416.1 48.1 416.8 46.9 417.1 45.5C417.4 44 417.6 42.9 417.6 42.2C417.6 41.1 417.2 40.1 416.4 39.4C415.6 38.7 414.3 38.3 412.5 38.3C410.3 38.3 408.7 38.8 407.7 39.8C406.7 40.7 406 41.9 405.7 43.4C405.4 44.9 405.2 46 405.2 46.7C405.2 47.8 405.6 48.8 406.4 49.5C407.2 50.1 408.5 50.5 410.3 50.5Z" fill="url(#paint30_linear_3_2)"/>
<path d="M251.6 107.8L261.7 57.3H262.2L266.8 71.8L279.5 107.8H290.7L303.8 42.6H294.2L284.1 93.1H283.5L279 78.6L266.2 42.6H255L241.9 107.8H251.6Z" fill="url(#paint31_linear_3_2)"/>
<path d="M327.5 38.2C325.3 38.2 323.7 38.7 322.7 39.7C321.7 40.6 321 41.8 320.7 43.3C320.4 44.8 320.2 45.9 320.2 46.6C320.2 47.7 320.6 48.7 321.4 49.4C322.2 50.1 323.5 50.5 325.3 50.5C327.5 50.5 329.1 50 330.1 49.1C331.1 48.1 331.8 46.9 332.1 45.5C332.4 44 332.6 42.9 332.6 42.2C332.6 41.1 332.2 40.1 331.4 39.4C330.7 38.6 329.3 38.2 327.5 38.2Z" fill="url(#paint32_linear_3_2)"/>
<path d="M346.8 59.2L337.1 107.8H346.8L352 81.6C352.4 79.7 353.1 77.7 354.1 75.8C355.1 73.8 356.3 72.1 357.7 70.6C360.1 67.9 363 66.5 366.2 66.5C368.4 66.5 370.1 67.1 371.1 68.3C372.1 69.4 372.6 71.1 372.6 73.3C372.6 74.9 372.4 76.6 372 78.5L367.8 99.5C367.7 100.1 367.6 100.5 367.6 100.8V101.7C367.6 103.7 368.2 105.2 369.4 106.3C370.7 107.4 372.3 107.9 374.4 107.9H381.8L383.4 99.8H377.5L381.9 77.8C382.1 76.5 382.3 75.4 382.5 74.4C382.6 73.3 382.7 72.3 382.7 71.2C382.7 67.1 381.7 63.9 379.6 61.6C377.6 59.3 374.6 58.1 370.5 58.1C366.9 58.1 363.9 59.1 361.4 61.1C359 63 356.8 65.9 355 69.6H354.5L356.6 59.2H346.8Z" fill="url(#paint33_linear_3_2)"/>
</g>
<defs>
<linearGradient id="paint0_linear_3_2" x1="-4.8719e-07" y1="105.163" x2="195.649" y2="105.163" gradientUnits="userSpaceOnUse">
<stop stop-color="#034354"/>
<stop offset="1" stop-color="#26707F"/>
</linearGradient>
<linearGradient id="paint1_linear_3_2" x1="83.7413" y1="106.425" x2="106.235" y2="106.425" gradientUnits="userSpaceOnUse">
<stop stop-color="#034354"/>
<stop offset="1" stop-color="#26707F"/>
</linearGradient>
<linearGradient id="paint2_linear_3_2" x1="55.1455" y1="115.946" x2="89.9253" y2="115.946" gradientUnits="userSpaceOnUse">
<stop stop-color="#034354"/>
<stop offset="1" stop-color="#26707F"/>
</linearGradient>
<linearGradient id="paint3_linear_3_2" x1="55.1455" y1="84.1296" x2="115.278" y2="84.1296" gradientUnits="userSpaceOnUse">
<stop stop-color="#034354"/>
<stop offset="1" stop-color="#26707F"/>
</linearGradient>
<linearGradient id="paint4_linear_3_2" x1="100.174" y1="96.9259" x2="134.831" y2="96.9259" gradientUnits="userSpaceOnUse">
<stop stop-color="#034354"/>
<stop offset="1" stop-color="#26707F"/>
</linearGradient>
<linearGradient id="paint5_linear_3_2" x1="74.8447" y1="128.732" x2="134.831" y2="128.732" gradientUnits="userSpaceOnUse">
<stop stop-color="#034354"/>
<stop offset="1" stop-color="#26707F"/>
</linearGradient>
<linearGradient id="paint6_linear_3_2" x1="191.221" y1="95.6331" x2="380.221" y2="183.633" gradientUnits="userSpaceOnUse">
<stop stop-color="#034354"/>
<stop offset="1" stop-color="#26707F"/>
</linearGradient>
<linearGradient id="paint7_linear_3_2" x1="188.105" y1="102.326" x2="377.105" y2="190.326" gradientUnits="userSpaceOnUse">
<stop stop-color="#034354"/>
<stop offset="1" stop-color="#26707F"/>
</linearGradient>
<linearGradient id="paint8_linear_3_2" x1="194.192" y1="89.2537" x2="383.191" y2="177.253" gradientUnits="userSpaceOnUse">
<stop stop-color="#034354"/>
<stop offset="1" stop-color="#26707F"/>
</linearGradient>
<linearGradient id="paint9_linear_3_2" x1="214.561" y1="45.5052" x2="403.561" y2="133.505" gradientUnits="userSpaceOnUse">
<stop stop-color="#034354"/>
<stop offset="1" stop-color="#26707F"/>
</linearGradient>
<linearGradient id="paint10_linear_3_2" x1="206.634" y1="62.5295" x2="395.634" y2="150.529" gradientUnits="userSpaceOnUse">
<stop stop-color="#034354"/>
<stop offset="1" stop-color="#26707F"/>
</linearGradient>
<linearGradient id="paint11_linear_3_2" x1="202.837" y1="70.6844" x2="391.837" y2="158.684" gradientUnits="userSpaceOnUse">
<stop stop-color="#034354"/>
<stop offset="1" stop-color="#26707F"/>
</linearGradient>
<linearGradient id="paint12_linear_3_2" x1="193.354" y1="91.0524" x2="382.354" y2="179.052" gradientUnits="userSpaceOnUse">
<stop stop-color="#034354"/>
<stop offset="1" stop-color="#26707F"/>
</linearGradient>
<linearGradient id="paint13_linear_3_2" x1="210.666" y1="53.87" x2="399.666" y2="141.87" gradientUnits="userSpaceOnUse">
<stop stop-color="#034354"/>
<stop offset="1" stop-color="#26707F"/>
</linearGradient>
<linearGradient id="paint14_linear_3_2" x1="197.784" y1="81.5375" x2="386.784" y2="169.537" gradientUnits="userSpaceOnUse">
<stop stop-color="#034354"/>
<stop offset="1" stop-color="#26707F"/>
</linearGradient>
<linearGradient id="paint15_linear_3_2" x1="201.245" y1="74.1035" x2="390.245" y2="162.103" gradientUnits="userSpaceOnUse">
<stop stop-color="#034354"/>
<stop offset="1" stop-color="#26707F"/>
</linearGradient>
<linearGradient id="paint16_linear_3_2" x1="188.823" y1="100.785" x2="377.822" y2="188.784" gradientUnits="userSpaceOnUse">
<stop stop-color="#034354"/>
<stop offset="1" stop-color="#26707F"/>
</linearGradient>
<linearGradient id="paint17_linear_3_2" x1="180.074" y1="119.573" x2="369.074" y2="207.573" gradientUnits="userSpaceOnUse">
<stop stop-color="#034354"/>
<stop offset="1" stop-color="#26707F"/>
</linearGradient>
<linearGradient id="paint18_linear_3_2" x1="225.515" y1="21.9802" x2="414.515" y2="109.98" gradientUnits="userSpaceOnUse">
<stop stop-color="#034354"/>
<stop offset="1" stop-color="#26707F"/>
</linearGradient>
<linearGradient id="paint19_linear_3_2" x1="222.936" y1="27.5169" x2="411.936" y2="115.517" gradientUnits="userSpaceOnUse">
<stop stop-color="#034354"/>
<stop offset="1" stop-color="#26707F"/>
</linearGradient>
<linearGradient id="paint20_linear_3_2" x1="232.726" y1="6.49047" x2="421.726" y2="94.4905" gradientUnits="userSpaceOnUse">
<stop stop-color="#034354"/>
<stop offset="1" stop-color="#26707F"/>
</linearGradient>
<linearGradient id="paint21_linear_3_2" x1="184.743" y1="109.546" x2="373.743" y2="197.546" gradientUnits="userSpaceOnUse">
<stop stop-color="#034354"/>
<stop offset="1" stop-color="#26707F"/>
</linearGradient>
<linearGradient id="paint22_linear_3_2" x1="228.916" y1="14.6733" x2="417.916" y2="102.673" gradientUnits="userSpaceOnUse">
<stop stop-color="#034354"/>
<stop offset="1" stop-color="#26707F"/>
</linearGradient>
<linearGradient id="paint23_linear_3_2" x1="229.024" y1="14.4453" x2="418.023" y2="102.445" gradientUnits="userSpaceOnUse">
<stop stop-color="#034354"/>
<stop offset="1" stop-color="#26707F"/>
</linearGradient>
<linearGradient id="paint24_linear_3_2" x1="217.872" y1="38.3942" x2="406.872" y2="126.394" gradientUnits="userSpaceOnUse">
<stop stop-color="#034354"/>
<stop offset="1" stop-color="#26707F"/>
</linearGradient>
<linearGradient id="paint25_linear_3_2" x1="221.87" y1="29.8074" x2="410.87" y2="117.807" gradientUnits="userSpaceOnUse">
<stop stop-color="#034354"/>
<stop offset="1" stop-color="#26707F"/>
</linearGradient>
<linearGradient id="paint26_linear_3_2" x1="182.736" y1="113.857" x2="371.736" y2="201.857" gradientUnits="userSpaceOnUse">
<stop stop-color="#034354"/>
<stop offset="1" stop-color="#26707F"/>
</linearGradient>
<linearGradient id="paint27_linear_3_2" x1="229.09" y1="14.3005" x2="418.09" y2="102.301" gradientUnits="userSpaceOnUse">
<stop stop-color="#034354"/>
<stop offset="1" stop-color="#26707F"/>
</linearGradient>
<linearGradient id="paint28_linear_3_2" x1="241.998" y1="-13.4228" x2="430.998" y2="74.5773" gradientUnits="userSpaceOnUse">
<stop stop-color="#034354"/>
<stop offset="1" stop-color="#26707F"/>
</linearGradient>
<linearGradient id="paint29_linear_3_2" x1="219.139" y1="35.6727" x2="408.139" y2="123.673" gradientUnits="userSpaceOnUse">
<stop stop-color="#034354"/>
<stop offset="1" stop-color="#26707F"/>
</linearGradient>
<linearGradient id="paint30_linear_3_2" x1="250.048" y1="-30.7124" x2="439.048" y2="57.2875" gradientUnits="userSpaceOnUse">
<stop stop-color="#034354"/>
<stop offset="1" stop-color="#26707F"/>
</linearGradient>
<linearGradient id="paint31_linear_3_2" x1="213.585" y1="47.6002" x2="402.585" y2="135.6" gradientUnits="userSpaceOnUse">
<stop stop-color="#034354"/>
<stop offset="1" stop-color="#26707F"/>
</linearGradient>
<linearGradient id="paint32_linear_3_2" x1="234.938" y1="1.73991" x2="423.938" y2="89.7398" gradientUnits="userSpaceOnUse">
<stop stop-color="#034354"/>
<stop offset="1" stop-color="#26707F"/>
</linearGradient>
<linearGradient id="paint33_linear_3_2" x1="225.346" y1="22.3416" x2="414.346" y2="110.342" gradientUnits="userSpaceOnUse">
<stop stop-color="#034354"/>
<stop offset="1" stop-color="#26707F"/>
</linearGradient>
<clipPath id="clip0_3_2">
<rect width="559.3" height="210.3" fill="white"/>
</clipPath>
</defs>
</svg>
