<svg width="256" height="256" viewBox="0 0 256 256" fill="none" xmlns="http://www.w3.org/2000/svg">
  <rect width="256" height="256" rx="48" fill="white"/>
  <path d="M194.062 50.5846C169.827 24.8765 133.8 12.0001 98.1959 16.4118C72.9798 19.5352 49.8257 31.3909 32 50.1482C49.6817 44.1926 67.8959 42.1855 85.2727 44.4809C112.343 48.058 136.713 62.7576 154.394 85.2972C177.278 114.481 184.347 152.495 176.997 186.294C185.753 178.845 193.202 169.757 199.006 159.175C221.545 118.127 219.677 77.7458 194.062 50.5846Z" fill="url(#paint0_linear)"/>
  <path d="M60.957 209.442C88.1208 234.96 128.214 242.965 168.423 229.87C196.057 220.878 218.315 201.177 231 176.271C218.754 188.43 204.855 197.571 189.592 203.203C161.699 213.5 130.364 213.311 101.966 201.918C62.4558 186.059 36.9985 148.551 35.7503 106.457C27.6157 118.839 21.8798 132.755 19.1963 147.389C12.3087 184.953 26.2229 217.754 60.957 209.442Z" fill="url(#paint1_linear)"/>
  <path d="M109.56 82L139.685 114.198L177.5 128.071L145.302 158.196L131.429 196.011L101.304 163.813L63.4897 149.94L95.6873 119.815L109.56 82Z" fill="url(#paint2_linear)"/>
  <circle cx="120.5" cy="129.5" r="17.5" fill="#F7F7F7"/>
  <defs>
    <linearGradient id="paint0_linear" x1="35.1791" y1="28.1702" x2="201.5" y2="191.5" gradientUnits="userSpaceOnUse">
      <stop stop-color="#004B61"/>
      <stop offset="1" stop-color="#3A8799"/>
    </linearGradient>
    <linearGradient id="paint1_linear" x1="27.5" y1="117" x2="212.5" y2="226" gradientUnits="userSpaceOnUse">
      <stop stop-color="#003E52"/>
      <stop offset="1" stop-color="#2E7B8E"/>
    </linearGradient>
    <linearGradient id="paint2_linear" x1="71" y1="94" x2="176" y2="183" gradientUnits="userSpaceOnUse">
      <stop stop-color="#0B5A70"/>
      <stop offset="1" stop-color="#2B8397"/>
    </linearGradient>
  </defs>
</svg>
