<svg width="256" height="256" viewBox="0 0 195.649 210.4" fill="none" xmlns="http://www.w3.org/2000/svg">
  <path d="M195.5 102.5C194.1 75.8 183 53.5 165.6 33.9C150.1 16.4 132 3.2 107.9 0.7C103.7 0.3 99.5 0 95.2 0C87.2 0 79 1.1 70.1 4.6C83.3 7.3 95.3 4.8 107.4 10.2C81.3 13.3 57.9 19.6 38.6 38.1C42.7 39.3 45.2 38.5 47.9 37.9C64.1 34.8 80 29.8 97 32.8C149 41.7 180.3 100.4 151.3 147C137.7 168.8 116.7 181.4 91.3 181.1C51.6 180.7 16.8 136.5 24.3 96.5C26.9 82.5 32.6 70.3 40 58.5C40.4 56.8 39.8 56.2 38.1 56.6C25.2 65 19.1 77.6 16.1 92.1C13.8 102.9 11.9 113.8 9.7 125.4C4.7 118.6 7.1 110.7 2.6 102.6C-4 133.6 2.2 159.1 22.8 180.9C37.5 196.4 64.4 207.2 76.6 202.4C71.2 198.5 65 195.9 60.7 190.8C61.2 190.3 61.3 190 61.5 190C62.2 190.1 63 190.2 63.7 190.3C89.4 193.4 114 192.3 135.5 174.9C145.2 167 152.7 157.2 160.5 147.7C162.5 146.9 162.6 147.8 162.1 149.4C154.8 169.3 137.4 180.4 122.2 193.5C126.1 196.8 130.6 193.7 134.3 198.2C129.6 202.2 124.9 206.3 120.1 210.4C124.1 210.9 127.2 210.2 130.2 209.2C171.2 196 197.8 146 195.5 102.5Z" fill="url(#paint0_linear_3_2)"/>
  <path d="M83.7 106.4C83.7 104.6 84.2 102.8 84.9 101.3L55.1 86C60.9 92.7 65.4 98.5 70.6 103.6C76.3 109.2 78.2 115.3 76.8 123.1C75.6 130.2 75.5 137.5 74.7 145.9L89.8 116.5C86.3 114.6 83.7 110.8 83.7 106.4Z" fill="url(#paint2_linear_3_2)"/>
  <path d="M95 95.2C96.9 95.2 98.6 95.7 100.2 96.5L115.3 67C107.7 73.6 101.2 79 95.1 84.6C91.3 88.1 87.2 89.3 82.1 88.7C73.6 87.7 65.1 87 55.2 86L85 101.3C86.8 97.7 90.6 95.2 95 95.2Z" fill="url(#paint3_linear_3_2)"/>
  <path d="M106.2 106.4C106.2 108.3 105.7 110 104.9 111.5L134.7 126.8C128.4 119.5 123.2 113 117.5 107.1C113.4 102.8 112.1 98.4 112.9 92.6C114 84.6 114.3 76.5 115.1 66.9L100 96.4C103.8 98.3 106.2 102.1 106.2 106.4Z" fill="url(#paint4_linear_3_2)"/>
  <path d="M105 111.6C103.1 115.2 99.4 117.7 95 117.7C93.2 117.7 91.5 117.3 89.9 116.5L74.8 145.9C82.1 139.7 88.5 134.7 94.4 129.1C98.6 125 103.1 123.7 108.9 124.5C117.1 125.7 125.4 126.1 134.8 126.9L105 111.6Z" fill="url(#paint5_linear_3_2)"/>
  <defs>
    <linearGradient id="paint0_linear_3_2" x1="0" y1="105.163" x2="195.649" y2="105.163" gradientUnits="userSpaceOnUse">
      <stop stop-color="#034354"/>
      <stop offset="1" stop-color="#26707F"/>
    </linearGradient>
    <linearGradient id="paint2_linear_3_2" x1="55.1455" y1="115.946" x2="89.9253" y2="115.946" gradientUnits="userSpaceOnUse">
      <stop stop-color="#034354"/>
      <stop offset="1" stop-color="#26707F"/>
    </linearGradient>
    <linearGradient id="paint3_linear_3_2" x1="55.1455" y1="84.1296" x2="115.278" y2="84.1296" gradientUnits="userSpaceOnUse">
      <stop stop-color="#034354"/>
      <stop offset="1" stop-color="#26707F"/>
    </linearGradient>
    <linearGradient id="paint4_linear_3_2" x1="100.174" y1="96.9259" x2="134.831" y2="96.9259" gradientUnits="userSpaceOnUse">
      <stop stop-color="#034354"/>
      <stop offset="1" stop-color="#26707F"/>
    </linearGradient>
    <linearGradient id="paint5_linear_3_2" x1="74.8447" y1="128.732" x2="134.831" y2="128.732" gradientUnits="userSpaceOnUse">
      <stop stop-color="#034354"/>
      <stop offset="1" stop-color="#26707F"/>
    </linearGradient>
  </defs>
</svg>
